<svg version="1.1" xmlns="http://www.w3.org/2000/svg" x="0px" y="0px" viewBox="0 0 1000 1000" enable-background="new 0 0 1000 1000" xml:space="preserve">
<g>
    <path d="M870.9,990H129.1c-5.6,0-10.1-4.5-10.1-10.1V20.1c0-5.6,4.5-10.1,10.1-10.1h741.8c5.6,0,10.1,4.5,10.1,10.1v959.7C881,985.5,876.5,990,870.9,990z M139.2,969.7h721.5V30.3H139.2V969.7z M595.9,870H423.2c-3.6,0-7-1.9-8.8-5.1c-1.8-3.1-1.8-7,0-10.1L534,646.1c33.9-59.1,51.8-126.4,51.8-194.5V282c0-42-34.2-76.2-76.2-76.2c-42,0-76.2,34.2-76.2,76.2v85.4c0,5.6-4.5,10.1-10.1,10.1c-5.6,0-10.1-4.5-10.1-10.1V282c0-53.2,43.3-96.5,96.5-96.5c53.2,0,96.5,43.3,96.5,96.5v169.5c0,71.7-18.8,142.4-54.4,204.6L440.7,849.7h155.2c5.6,0,10.1,4.5,10.1,10.1S601.5,870,595.9,870z M323.1,870c-5.6,0-10.1-4.5-10.1-10.1V220.2l-78.2,78.2c-4,4-10.4,4-14.3,0c-4-4-4-10.4,0-14.3l95.5-95.5c2.9-2.9,7.3-3.8,11.1-2.2c3.8,1.6,6.3,5.3,6.3,9.4v664.2C333.2,865.5,328.7,870,323.1,870z M725.2,244.6c-5.6,0-10.1-4.5-10.1-10.1v-44.6h-44.6c-5.6,0-10.1-4.5-10.1-10.1c0-5.6,4.5-10.1,10.1-10.1H715V125c0-5.6,4.5-10.1,10.1-10.1s10.1,4.5,10.1,10.1v44.6h44.6c5.6,0,10.1,4.5,10.1,10.1c0,5.6-4.5,10.1-10.1,10.1h-44.6v44.6C735.3,240,730.8,244.6,725.2,244.6z"/>
</g>
</svg>
