<svg version="1.1" xmlns="http://www.w3.org/2000/svg" x="0px" y="0px" viewBox="0 0 1000 1000" enable-background="new 0 0 1000 1000">
<g>
    <path d="M818.6,623.7l-12.4-1.2c-22.4,0-43.7,4.6-63.5,12L365.6,257.2c7.3-19.9,11.9-41.1,11.9-63.5l-1.2-12.4C369.8,85.7,291,9.8,193.8,9.8c-28.3,0-54.8,6.9-78.8,18.4l122.1,122.1c6.4,6.4,10.8,14,13.8,22.1c8,21.7,3.7,47-13.8,64.6c-11.9,12-27.6,18-43.3,18c-7.2,0-14.4-1.6-21.3-4.2c-8-3.1-15.6-7.4-22-13.8L28.4,114.9C16.9,138.8,10,165.4,10,193.7c0,97.3,75.8,176.1,171.4,182.5l12.4,1.3c22.4,0,43.7-4.6,63.5-11.9l377.1,377.2c-7.3,19.9-11.9,41.1-11.9,63.5l1.3,12.4c6.5,95.6,85.2,171.4,182.5,171.4c28.3,0,54.9-6.9,78.8-18.4L762.9,849.7c-6.4-6.4-10.8-14.1-13.8-22c-8-21.7-3.7-47.1,13.8-64.6c11.9-12,27.6-18,43.3-18c7.2,0,14.4,1.6,21.2,4.2c8,3,15.7,7.3,22.1,13.8l122.1,122.1c11.5-24,18.4-50.5,18.4-78.8C990,709.1,914.2,630.3,818.6,623.7z"/>
    <path d="M751.5,295.3l118.2-61.2l62-119.8L874,56.5l-119.8,62L693,236.8L548.9,381l58.5,58.5L751.5,295.3z"/>
    <path d="M421.3,580l-6.2-6.5l-3.6-3.9l-2.3-2.6l-4-4.1l-28.6-28.6c-9.8-9.8-25.7-9.8-35.5,0c-4.7,4.7-7.2,10.9-7.3,17.1c-11.8,2.2-23.1,7.9-32.3,17L53.4,816.7c-24.1,24.2-24.1,63.3,0,87.5l38.3,38.3c24.1,24.1,63.3,24.1,87.5,0l248.2-248.2c8.9-8.9,14.5-19.8,16.8-31.2c6.7,0.2,13.3-2.3,18.4-7.3c9.8-9.8,9.8-25.7,0-35.5l-21.4-20.3l-4.3-4.5l-4.1-4l-2.6-2.6l-3.9-3.9L421.3,580z M100.7,835.6c-10.4-10.4-10.4-27.3,0-37.7l194-194c10.4-10.4,27.3-10.4,37.7,0c10.4,10.4,10.4,27.3,0,37.7l-194,194C128,846,111.1,846,100.7,835.6z M395.8,704.9l-194,194c-10.4,10.4-27.3,10.4-37.7,0c-10.4-10.4-10.4-27.3,0-37.7l194-194c10.4-10.4,27.3-10.4,37.7,0C406.3,677.6,406.3,694.5,395.8,704.9z"/>
</g>
</svg>
